<?xml version="1.0" encoding="UTF-8"?>
<svg version="1.1" xmlns="http://www.w3.org/2000/svg" width="103" height="102">
<path d="M0 0 C33.99 0 67.98 0 103 0 C103 33.66 103 67.32 103 102 C69.01 102 35.02 102 0 102 C0 68.34 0 34.68 0 0 Z " fill="#8CECEB" transform="translate(0,0)"/>
<path d="M0 0 C1.32 0 2.64 0 4 0 C4 1.32 4 2.64 4 4 C7.96 4 11.92 4 16 4 C16 2.68 16 1.36 16 0 C18.475 0.495 18.475 0.495 21 1 C21 1.99 21 2.98 21 4 C22.093125 3.938125 23.18625 3.87625 24.3125 3.8125 C28 4 28 4 29.70556641 5.0078125 C31.74314356 8.14372906 31.42726536 11.44252369 31.3984375 15.0625 C31.40130768 15.85019775 31.40417786 16.63789551 31.40713501 17.44946289 C31.40917522 19.11377685 31.40364832 20.77811481 31.39111328 22.44238281 C31.37505809 24.99077947 31.39096244 27.53759021 31.41015625 30.0859375 C31.40817381 31.7031285 31.40433011 33.32031852 31.3984375 34.9375 C31.40754654 36.08134155 31.40754654 36.08134155 31.4168396 37.24829102 C31.37910386 40.0848615 31.29409051 42.4299623 29.97900391 44.97900391 C26.77053053 46.63430068 23.46408507 46.42652164 19.9375 46.3984375 C18.75595337 46.40274277 18.75595337 46.40274277 17.55053711 46.40713501 C15.88622315 46.40917522 14.22188519 46.40364832 12.55761719 46.39111328 C10.00922053 46.37505809 7.46240979 46.39096244 4.9140625 46.41015625 C3.2968715 46.40817381 1.67968148 46.40433011 0.0625 46.3984375 C-1.08134155 46.40754654 -1.08134155 46.40754654 -2.24829102 46.4168396 C-5.0848615 46.37910386 -7.4299623 46.29409051 -9.97900391 44.97900391 C-11.63430068 41.77053053 -11.42652164 38.46408507 -11.3984375 34.9375 C-11.40274277 33.75595337 -11.40274277 33.75595337 -11.40713501 32.55053711 C-11.40917522 30.88622315 -11.40364832 29.22188519 -11.39111328 27.55761719 C-11.37505809 25.00922053 -11.39096244 22.46240979 -11.41015625 19.9140625 C-11.40817381 18.2968715 -11.40433011 16.67968148 -11.3984375 15.0625 C-11.40451019 14.29993896 -11.41058289 13.53737793 -11.4168396 12.75170898 C-11.34743643 7.53471921 -11.34743643 7.53471921 -9.70556641 5.0078125 C-6.91281827 3.35758858 -4.15287779 3.82153522 -1 4 C-0.67 2.68 -0.34 1.36 0 0 Z " fill="#046A6A" transform="translate(43,28)"/>
<path d="M0 0 C33.99 0 67.98 0 103 0 C103 7.92 103 15.84 103 24 C101.38511278 21.57766917 100.11980743 19.27088226 98.8125 16.6875 C94.51186464 9.0086844 89.25893166 5.70757636 81.05734253 2.83599854 C76.03154125 1.46174542 71.15744449 1.38937638 65.97265625 1.3984375 C64.86248642 1.38986725 63.75231659 1.381297 62.60850525 1.37246704 C60.27654735 1.36105591 57.94451831 1.35992382 55.61254883 1.36865234 C52.07443245 1.37497866 48.53965808 1.32794907 45.00195312 1.27734375 C27.24099513 1.11185156 27.24099513 1.11185156 12.11938477 9.6237793 C4.90298723 17.14915572 3.39154985 25.79420012 3.46875 35.8671875 C3.4649231 36.9825589 3.46109619 38.0979303 3.45715332 39.24710083 C3.4544439 41.59524442 3.46173667 43.9434187 3.47851562 46.29150391 C3.49989683 49.85779189 3.47869992 53.42205608 3.453125 56.98828125 C3.45576924 59.28125439 3.46089619 61.57422629 3.46875 63.8671875 C3.46065308 64.91961639 3.45255615 65.97204529 3.44421387 67.05636597 C3.55772004 76.15943398 5.47583156 85.74824108 12.12158203 92.44702148 C23.29017689 101.68063623 35.12865706 100.86648669 49 100.67236328 C52.62329758 100.62502224 56.24365716 100.6312852 59.8671875 100.64453125 C62.19532985 100.63337936 64.52345995 100.61916063 66.8515625 100.6015625 C68.45664169 100.60429672 68.45664169 100.60429672 70.09414673 100.60708618 C79.29359823 100.43541774 87.5752791 98.21695894 94.46875 91.84375 C97.40842664 88.30413935 99.1575413 84.1817602 101 80 C101.99 78.02 101.99 78.02 103 76 C103 84.58 103 93.16 103 102 C69.01 102 35.02 102 0 102 C0 68.34 0 34.68 0 0 Z " fill="#EBECE7" transform="translate(0,0)"/>
<path d="M0 0 C10.56 0 21.12 0 32 0 C32 6.6 32 13.2 32 20 C21.44 20 10.88 20 0 20 C0 13.4 0 6.8 0 0 Z " fill="#85E6E5" transform="translate(37,49)"/>
<path d="M0 0 C0.33 0 0.66 0 1 0 C1 8.58 1 17.16 1 26 C-26.39 26 -53.78 26 -82 26 C-82.66 24.35 -83.32 22.7 -84 21 C-83.236875 21.309375 -82.47375 21.61875 -81.6875 21.9375 C-77.89891898 23.4353111 -75.00702434 24.13288882 -70.95288086 24.17700195 C-69.40998634 24.19625481 -69.40998634 24.19625481 -67.83592224 24.21589661 C-66.72346634 24.22328354 -65.61101044 24.23067047 -64.46484375 24.23828125 C-63.31641495 24.246353 -62.16798615 24.25442474 -60.98475647 24.26274109 C-58.54950469 24.27658285 -56.1142335 24.28730459 -53.67895508 24.29516602 C-49.97634368 24.31232004 -46.27463883 24.35620013 -42.57226562 24.40039062 C-40.20313155 24.41052297 -37.83398989 24.41903737 -35.46484375 24.42578125 C-34.36655746 24.44328934 -33.26827118 24.46079742 -32.13670349 24.47883606 C-22.80683322 24.45285703 -14.52353697 22.31997989 -7.53515625 15.84375 C-3.75862755 11.30807176 -1.2458535 5.7521321 0 0 Z " fill="#DAE0DB" transform="translate(102,76)"/>
<path d="M0 0 C1.65 0 3.3 0 5 0 C5.33 0.99 5.66 1.98 6 3 C6.99 3 7.98 3 9 3 C9.33 2.01 9.66 1.02 10 0 C13.96 0 17.92 0 22 0 C22.33 0.99 22.66 1.98 23 3 C23.99 3 24.98 3 26 3 C26.33 2.01 26.66 1.02 27 0 C28.65 0 30.3 0 32 0 C32 2.31 32 4.62 32 7 C21.44 7 10.88 7 0 7 C0 4.69 0 2.38 0 0 Z " fill="#8AEAE9" transform="translate(37,37)"/>
<path d="M0 0 C0.33 0 0.66 0 1 0 C1 5.94 1 11.88 1 18 C-4.94 18 -10.88 18 -17 18 C-14.38038121 15.90430497 -11.75315325 13.81617795 -9.0625 11.8125 C-5.6577212 9.00752679 -3.51068161 5.51193655 -1.19921875 1.79296875 C-0.80347656 1.20128906 -0.40773438 0.60960938 0 0 Z " fill="#ECEDE7" transform="translate(102,84)"/>
<path d="M0 0 C0.763125 0.309375 1.52625 0.61875 2.3125 0.9375 C6.08177425 2.42767819 8.98919223 3.13561567 13.0222168 3.20532227 C14.55346443 3.2352401 14.55346443 3.2352401 16.11564636 3.26576233 C17.21572525 3.28247482 18.31580414 3.29918732 19.44921875 3.31640625 C21.14084892 3.3475779 21.14084892 3.3475779 22.86665344 3.37937927 C26.4735396 3.44482847 30.08049929 3.50373844 33.6875 3.5625 C36.13086702 3.60568961 38.57422656 3.64930404 41.01757812 3.69335938 C47.01164074 3.80050516 53.00577671 3.90228029 59 4 C59 4.33 59 4.66 59 5 C40.19 5 21.38 5 2 5 C1.34 3.35 0.68 1.7 0 0 Z " fill="#D7D7D2" transform="translate(18,97)"/>
<path d="M0 0 C1.65 0.33 3.3 0.66 5 1 C4.67 2.32 4.34 3.64 4 5 C2.35 4.67 0.7 4.34 -1 4 C-0.67 2.68 -0.34 1.36 0 0 Z " fill="#197E7E" transform="translate(51,61)"/>
<path d="M0 0 C1.051875 0.433125 1.051875 0.433125 2.125 0.875 C5.05452503 2.02133588 8.00921653 3.02625654 11 4 C11 4.33 11 4.66 11 5 C8.03 5 5.06 5 2 5 C1.34 3.35 0.68 1.7 0 0 Z " fill="#D9DFDA" transform="translate(18,97)"/>
<path d="M0 0 C2.475 0.495 2.475 0.495 5 1 C4.67 2.32 4.34 3.64 4 5 C2.68 4.67 1.36 4.34 0 4 C0 2.68 0 1.36 0 0 Z " fill="#0E7373" transform="translate(59,53)"/>
<path d="M0 0 C1.32 0 2.64 0 4 0 C3.67 1.65 3.34 3.3 3 5 C1.68 4.67 0.36 4.34 -1 4 C-0.67 2.68 -0.34 1.36 0 0 Z " fill="#0E7473" transform="translate(43,53)"/>
<path d="M0 0 C1.98 0.495 1.98 0.495 4 1 C3.67 2.32 3.34 3.64 3 5 C1.68 4.67 0.36 4.34 -1 4 C-0.67 2.68 -0.34 1.36 0 0 Z " fill="#076D6D" transform="translate(43,61)"/>
<path d="M0 0 C1.98 0.495 1.98 0.495 4 1 C3.67 2.32 3.34 3.64 3 5 C1.68 4.67 0.36 4.34 -1 4 C-0.67 2.68 -0.34 1.36 0 0 Z " fill="#076D6D" transform="translate(60,61)"/>
<path d="M0 0 C1.32 0 2.64 0 4 0 C3.67 1.65 3.34 3.3 3 5 C1.68 4.34 0.36 3.68 -1 3 C-0.67 2.01 -0.34 1.02 0 0 Z " fill="#0C7171" transform="translate(51,53)"/>
</svg>
